<?xml version="1.0" encoding="utf-8"?>
<!-- Generator: Adobe Illustrator 27.5.0, SVG Export Plug-In . SVG Version: 6.00 Build 0)  -->
<svg version="1.1" xmlns="http://www.w3.org/2000/svg" xmlns:xlink="http://www.w3.org/1999/xlink" x="0px" y="0px"
	 viewBox="0 0 800 800" style="enable-background:new 0 0 800 800;" xml:space="preserve">
<g id="Background">
	<g>
		<g>
			<path d="M288.462,775.651v-0.258c-0.349,0.398-0.692,0.725-1.031,0.973c-0.338,0.252-0.706,0.441-1.102,0.57
				c-0.396,0.133-0.827,0.195-1.296,0.195c-0.621,0-1.196-0.131-1.725-0.392c-0.528-0.264-0.986-0.639-1.372-1.127
				c-0.387-0.486-0.68-1.059-0.879-1.719c-0.199-0.658-0.299-1.371-0.299-2.137c0-1.621,0.396-2.885,1.188-3.791
				c0.791-0.904,1.833-1.357,3.125-1.357c0.747,0,1.377,0.129,1.89,0.385c0.513,0.256,1.013,0.652,1.501,1.182v-3.826
				c0-0.533,0.105-0.934,0.318-1.207c0.211-0.271,0.514-0.408,0.907-0.408c0.393,0,0.694,0.125,0.907,0.375
				c0.212,0.252,0.318,0.619,0.318,1.107v11.436c0,0.494-0.113,0.863-0.342,1.111c-0.228,0.246-0.522,0.369-0.883,0.369
				c-0.354,0-0.647-0.127-0.879-0.383C288.578,776.491,288.462,776.126,288.462,775.651z M283.362,771.843
				c0,0.703,0.109,1.301,0.328,1.795c0.219,0.494,0.518,0.865,0.897,1.115c0.38,0.25,0.795,0.377,1.244,0.377
				c0.456,0,0.872-0.119,1.25-0.357c0.376-0.236,0.677-0.602,0.902-1.092c0.225-0.49,0.337-1.106,0.337-1.838
				c0-0.691-0.112-1.285-0.337-1.783c-0.225-0.496-0.528-0.875-0.912-1.139c-0.383-0.262-0.803-0.393-1.258-0.393
				c-0.475,0-0.899,0.135-1.273,0.402c-0.374,0.269-0.663,0.654-0.869,1.158C283.464,770.593,283.362,771.177,283.362,771.843z"/>
			<path d="M299.896,772.499h-5.071c0.006,0.588,0.124,1.107,0.356,1.557c0.23,0.449,0.538,0.789,0.921,1.016
				c0.383,0.229,0.806,0.342,1.268,0.342c0.31,0,0.593-0.035,0.85-0.107c0.257-0.074,0.505-0.188,0.746-0.344
				c0.241-0.154,0.462-0.32,0.665-0.498c0.202-0.178,0.464-0.42,0.788-0.723c0.133-0.113,0.323-0.172,0.571-0.172
				c0.266,0,0.48,0.074,0.645,0.221c0.165,0.147,0.248,0.35,0.248,0.617c0,0.234-0.093,0.506-0.275,0.82
				c-0.185,0.315-0.462,0.615-0.832,0.902c-0.372,0.289-0.836,0.527-1.397,0.717c-0.56,0.191-1.204,0.285-1.933,0.285
				c-1.665,0-2.96-0.475-3.884-1.424s-1.386-2.238-1.386-3.865c0-0.768,0.113-1.478,0.341-2.133
				c0.228-0.656,0.561-1.217,0.997-1.686c0.437-0.469,0.975-0.828,1.615-1.078c0.639-0.25,1.349-0.375,2.127-0.375
				c1.013,0,1.882,0.213,2.606,0.641c0.726,0.428,1.27,0.98,1.63,1.656c0.36,0.678,0.542,1.369,0.542,2.07
				c0,0.654-0.187,1.076-0.56,1.27C301.101,772.401,300.574,772.499,299.896,772.499z M294.825,771.026h4.702
				c-0.063-0.887-0.303-1.551-0.717-1.99c-0.415-0.441-0.96-0.66-1.638-0.66c-0.646,0-1.177,0.223-1.591,0.668
				C295.165,769.491,294.914,770.151,294.825,771.026z"/>
			<path d="M311.711,773.741c0,0.715-0.173,1.328-0.522,1.838c-0.348,0.51-0.862,0.896-1.544,1.16
				c-0.68,0.262-1.508,0.392-2.483,0.392c-0.931,0-1.728-0.142-2.393-0.428c-0.665-0.283-1.156-0.641-1.472-1.066
				c-0.317-0.43-0.475-0.857-0.475-1.289c0-0.285,0.101-0.527,0.304-0.73c0.202-0.201,0.459-0.303,0.77-0.303
				c0.272,0,0.48,0.066,0.626,0.199c0.146,0.133,0.286,0.32,0.418,0.559c0.266,0.465,0.585,0.807,0.956,1.037
				c0.37,0.227,0.875,0.342,1.515,0.342c0.519,0,0.945-0.117,1.277-0.348c0.332-0.232,0.498-0.496,0.498-0.793
				c0-0.457-0.172-0.787-0.518-0.996c-0.345-0.209-0.914-0.41-1.705-0.6c-0.893-0.221-1.619-0.455-2.18-0.699
				c-0.561-0.242-1.008-0.565-1.344-0.963c-0.336-0.398-0.503-0.891-0.503-1.473c0-0.518,0.155-1.01,0.465-1.473
				c0.311-0.461,0.768-0.83,1.374-1.105c0.603-0.275,1.333-0.414,2.188-0.414c0.671,0,1.275,0.07,1.809,0.211
				c0.536,0.137,0.983,0.326,1.34,0.561c0.358,0.232,0.63,0.492,0.816,0.777c0.187,0.285,0.28,0.563,0.28,0.836
				c0,0.297-0.1,0.541-0.298,0.733c-0.199,0.188-0.482,0.285-0.851,0.285c-0.266,0-0.492-0.076-0.679-0.231
				c-0.186-0.15-0.4-0.379-0.641-0.682c-0.196-0.254-0.426-0.457-0.693-0.609c-0.266-0.152-0.627-0.227-1.083-0.227
				c-0.469,0-0.857,0.098-1.168,0.299c-0.31,0.199-0.465,0.447-0.465,0.744c0,0.273,0.114,0.496,0.341,0.67
				c0.229,0.176,0.535,0.32,0.922,0.433c0.386,0.113,0.917,0.252,1.596,0.416c0.803,0.197,1.46,0.432,1.97,0.703
				c0.509,0.271,0.895,0.594,1.16,0.965C311.58,772.845,311.711,773.267,311.711,773.741z"/>
			<path d="M314.36,765.384c-0.361,0-0.669-0.111-0.926-0.332c-0.256-0.221-0.385-0.535-0.385-0.941
				c0-0.367,0.131-0.668,0.394-0.906s0.569-0.357,0.917-0.357c0.336,0,0.633,0.107,0.892,0.324c0.26,0.215,0.39,0.527,0.39,0.94
				c0,0.4-0.127,0.711-0.381,0.935C315.009,765.271,314.708,765.384,314.36,765.384z M315.643,768.062v7.494
				c0,0.519-0.124,0.912-0.371,1.178c-0.248,0.266-0.56,0.398-0.941,0.398c-0.38,0-0.689-0.135-0.926-0.408
				c-0.238-0.271-0.356-0.662-0.356-1.168v-7.418c0-0.512,0.118-0.898,0.356-1.158c0.237-0.26,0.546-0.391,0.926-0.391
				c0.38,0,0.693,0.131,0.941,0.391C315.519,767.239,315.643,767.601,315.643,768.062z"/>
			<path d="M327.001,768.489v7.531c0,0.861-0.093,1.604-0.277,2.225c-0.182,0.619-0.477,1.133-0.883,1.537
				c-0.405,0.404-0.936,0.707-1.59,0.902c-0.655,0.197-1.471,0.295-2.446,0.295c-0.893,0-1.691-0.125-2.394-0.375
				c-0.702-0.252-1.243-0.574-1.624-0.969c-0.379-0.396-0.57-0.803-0.57-1.221c0-0.316,0.108-0.576,0.324-0.773
				c0.215-0.201,0.475-0.301,0.778-0.301c0.38,0,0.712,0.168,0.998,0.504c0.139,0.17,0.283,0.344,0.432,0.518
				c0.149,0.176,0.314,0.324,0.494,0.447c0.181,0.123,0.397,0.215,0.65,0.275c0.253,0.059,0.545,0.09,0.874,0.09
				c0.671,0,1.192-0.094,1.563-0.281c0.371-0.186,0.63-0.447,0.779-0.783c0.149-0.334,0.236-0.693,0.261-1.078
				c0.025-0.383,0.044-0.998,0.057-1.848c-0.4,0.559-0.859,0.982-1.382,1.273c-0.522,0.291-1.145,0.438-1.866,0.438
				c-0.868,0-1.625-0.223-2.275-0.666c-0.648-0.443-1.147-1.063-1.495-1.861c-0.349-0.799-0.522-1.719-0.522-2.764
				c0-0.777,0.105-1.482,0.317-2.107c0.213-0.629,0.515-1.156,0.907-1.588c0.393-0.43,0.845-0.754,1.358-0.973
				c0.513-0.219,1.076-0.328,1.691-0.328c0.734,0,1.371,0.143,1.909,0.422c0.538,0.283,1.039,0.725,1.501,1.326v-0.352
				c0-0.449,0.11-0.797,0.332-1.045c0.222-0.246,0.507-0.371,0.855-0.371c0.5,0,0.832,0.164,0.997,0.49
				C326.918,767.405,327.001,767.876,327.001,768.489z M319.488,771.776c0,1.051,0.229,1.846,0.688,2.383
				c0.459,0.539,1.053,0.809,1.781,0.809c0.43,0,0.837-0.117,1.22-0.348c0.384-0.231,0.695-0.58,0.937-1.045
				c0.24-0.465,0.361-1.029,0.361-1.695c0-1.057-0.232-1.881-0.698-2.469c-0.466-0.588-1.078-0.883-1.838-0.883
				c-0.741,0-1.335,0.281-1.78,0.846C319.711,769.937,319.488,770.737,319.488,771.776z"/>
			<path d="M331.122,768.024v0.313c0.455-0.602,0.954-1.043,1.496-1.324c0.541-0.281,1.163-0.424,1.866-0.424
				c0.684,0,1.295,0.15,1.833,0.447c0.538,0.299,0.941,0.719,1.206,1.262c0.172,0.318,0.282,0.66,0.333,1.027
				c0.051,0.367,0.077,0.836,0.077,1.406v4.824c0,0.519-0.119,0.912-0.357,1.178c-0.237,0.266-0.546,0.398-0.926,0.398
				c-0.387,0-0.7-0.135-0.94-0.408c-0.241-0.271-0.361-0.662-0.361-1.168v-4.322c0-0.854-0.119-1.508-0.356-1.961
				c-0.238-0.451-0.711-0.68-1.42-0.68c-0.461,0-0.883,0.139-1.263,0.414c-0.38,0.275-0.659,0.654-0.836,1.135
				c-0.126,0.387-0.19,1.107-0.19,2.166v3.248c0,0.525-0.123,0.92-0.365,1.184c-0.244,0.262-0.559,0.392-0.945,0.392
				c-0.374,0-0.681-0.135-0.922-0.408c-0.24-0.271-0.361-0.662-0.361-1.168v-7.494c0-0.494,0.107-0.863,0.323-1.107
				c0.215-0.242,0.51-0.365,0.883-0.365c0.228,0,0.435,0.055,0.619,0.162c0.183,0.109,0.331,0.27,0.441,0.484
				C331.067,767.45,331.122,767.714,331.122,768.024z"/>
			<path d="M346.896,772.499h-5.071c0.007,0.588,0.124,1.107,0.356,1.557c0.231,0.449,0.538,0.789,0.921,1.016
				c0.382,0.229,0.805,0.342,1.267,0.342c0.311,0,0.594-0.035,0.851-0.107c0.255-0.074,0.504-0.188,0.746-0.344
				c0.24-0.154,0.461-0.32,0.665-0.498c0.202-0.178,0.464-0.42,0.788-0.723c0.133-0.113,0.323-0.172,0.57-0.172
				c0.266,0,0.481,0.074,0.646,0.221c0.165,0.147,0.247,0.35,0.247,0.617c0,0.234-0.091,0.506-0.275,0.82
				c-0.184,0.315-0.461,0.615-0.831,0.902c-0.371,0.289-0.835,0.527-1.396,0.717c-0.561,0.191-1.205,0.285-1.933,0.285
				c-1.665,0-2.96-0.475-3.885-1.424c-0.923-0.949-1.386-2.238-1.386-3.865c0-0.768,0.114-1.478,0.342-2.133
				c0.228-0.656,0.561-1.217,0.998-1.686c0.437-0.469,0.975-0.828,1.614-1.078c0.639-0.25,1.349-0.375,2.128-0.375
				c1.013,0,1.881,0.213,2.606,0.641c0.726,0.428,1.268,0.98,1.63,1.656c0.36,0.678,0.541,1.369,0.541,2.07
				c0,0.654-0.186,1.076-0.561,1.27C348.101,772.401,347.575,772.499,346.896,772.499z M341.825,771.026h4.701
				c-0.063-0.887-0.302-1.551-0.717-1.99c-0.415-0.441-0.961-0.66-1.638-0.66c-0.646,0-1.177,0.223-1.592,0.668
				C342.165,769.491,341.914,770.151,341.825,771.026z"/>
			<path d="M357.466,775.651v-0.258c-0.348,0.398-0.691,0.725-1.03,0.973c-0.339,0.252-0.706,0.441-1.102,0.57
				c-0.395,0.133-0.828,0.195-1.296,0.195c-0.622,0-1.196-0.131-1.724-0.392c-0.529-0.264-0.986-0.639-1.373-1.127
				c-0.387-0.486-0.679-1.059-0.878-1.719c-0.2-0.658-0.299-1.371-0.299-2.137c0-1.621,0.396-2.885,1.187-3.791
				c0.792-0.904,1.833-1.357,3.125-1.357c0.747,0,1.377,0.129,1.89,0.385c0.513,0.256,1.013,0.652,1.5,1.182v-3.826
				c0-0.533,0.107-0.934,0.319-1.207c0.211-0.271,0.515-0.408,0.907-0.408c0.392,0,0.694,0.125,0.907,0.375
				c0.212,0.252,0.318,0.619,0.318,1.107v11.436c0,0.494-0.114,0.863-0.342,1.111c-0.228,0.246-0.522,0.369-0.883,0.369
				c-0.354,0-0.647-0.127-0.879-0.383C357.582,776.491,357.466,776.126,357.466,775.651z M352.367,771.843
				c0,0.703,0.108,1.301,0.327,1.795c0.218,0.494,0.518,0.865,0.898,1.115c0.379,0.25,0.794,0.377,1.243,0.377
				c0.457,0,0.873-0.119,1.249-0.357c0.377-0.236,0.678-0.602,0.902-1.092c0.225-0.49,0.337-1.106,0.337-1.838
				c0-0.691-0.112-1.285-0.337-1.783c-0.224-0.496-0.528-0.875-0.912-1.139c-0.384-0.262-0.803-0.393-1.259-0.393
				c-0.474,0-0.899,0.135-1.273,0.402c-0.373,0.269-0.663,0.654-0.869,1.158C352.469,770.593,352.367,771.177,352.367,771.843z"/>
			<path d="M368.064,764.216v3.959c0.487-0.506,0.984-0.895,1.491-1.162c0.506-0.269,1.134-0.404,1.881-0.404
				c0.861,0,1.616,0.205,2.266,0.611c0.648,0.41,1.151,1.002,1.51,1.777c0.357,0.775,0.537,1.695,0.537,2.76
				c0,0.785-0.1,1.504-0.299,2.16c-0.2,0.656-0.49,1.225-0.869,1.705c-0.38,0.48-0.841,0.854-1.382,1.117
				c-0.542,0.262-1.139,0.392-1.79,0.392c-0.399,0-0.775-0.047-1.126-0.142c-0.352-0.094-0.651-0.219-0.898-0.375
				c-0.246-0.154-0.457-0.315-0.631-0.479c-0.174-0.164-0.404-0.412-0.689-0.742v0.258c0,0.486-0.117,0.855-0.352,1.107
				c-0.233,0.25-0.531,0.373-0.893,0.373c-0.367,0-0.66-0.123-0.878-0.373c-0.219-0.252-0.328-0.621-0.328-1.107v-11.322
				c0-0.525,0.106-0.924,0.317-1.191c0.212-0.269,0.509-0.404,0.889-0.404c0.399,0,0.706,0.129,0.921,0.385
				C367.956,763.376,368.064,763.739,368.064,764.216z M368.188,771.919c0,1.031,0.236,1.824,0.707,2.377
				c0.472,0.555,1.091,0.834,1.857,0.834c0.652,0,1.214-0.283,1.686-0.852c0.472-0.566,0.707-1.379,0.707-2.436
				c0-0.684-0.097-1.273-0.294-1.768c-0.197-0.494-0.475-0.875-0.836-1.144c-0.361-0.268-0.783-0.402-1.264-0.402
				c-0.494,0-0.934,0.135-1.32,0.402c-0.386,0.269-0.69,0.658-0.912,1.168C368.299,770.608,368.188,771.216,368.188,771.919z"/>
			<path d="M379.11,777.456l0.237-0.58l-3.191-8.035c-0.196-0.461-0.295-0.799-0.295-1.008c0-0.221,0.058-0.426,0.171-0.615
				c0.114-0.191,0.271-0.344,0.47-0.457c0.2-0.115,0.407-0.172,0.623-0.172c0.373,0,0.655,0.119,0.846,0.357
				c0.19,0.236,0.357,0.576,0.503,1.02l2.194,6.383l2.08-5.935c0.164-0.48,0.313-0.857,0.446-1.131
				c0.133-0.272,0.273-0.455,0.422-0.549c0.148-0.096,0.359-0.144,0.632-0.144c0.197,0,0.385,0.053,0.565,0.158
				c0.18,0.104,0.319,0.244,0.417,0.422c0.098,0.178,0.148,0.363,0.148,0.561c-0.026,0.119-0.066,0.291-0.124,0.514
				c-0.058,0.221-0.127,0.447-0.208,0.674l-3.381,8.852c-0.292,0.779-0.577,1.389-0.855,1.832c-0.279,0.443-0.647,0.785-1.107,1.021
				c-0.46,0.238-1.078,0.357-1.857,0.357c-0.759,0-1.33-0.082-1.708-0.246c-0.381-0.166-0.57-0.467-0.57-0.904
				c0-0.297,0.089-0.527,0.271-0.688c0.18-0.162,0.448-0.244,0.801-0.244c0.14,0,0.276,0.019,0.409,0.059
				c0.165,0.037,0.307,0.057,0.427,0.057c0.297,0,0.532-0.043,0.704-0.133c0.17-0.088,0.324-0.242,0.46-0.461
				C378.776,778.202,378.933,777.88,379.11,777.456z"/>
		</g>
		<g>
			<path d="M416.673,766.813h0.619v-0.777c0-0.814,0.1-1.457,0.307-1.938c0.203-0.478,0.555-0.826,1.047-1.045
				c0.49-0.217,1.162-0.326,2.016-0.326c1.52,0,2.273,0.367,2.273,1.113c0,0.238-0.08,0.445-0.24,0.615
				c-0.154,0.17-0.344,0.256-0.559,0.256c-0.1,0-0.277-0.018-0.527-0.059c-0.236-0.033-0.451-0.057-0.623-0.057
				c-0.467,0-0.766,0.141-0.904,0.416c-0.127,0.275-0.195,0.668-0.195,1.184v0.617h0.633c0.99,0,1.48,0.297,1.48,0.897
				c0,0.418-0.127,0.689-0.393,0.805c-0.262,0.113-0.623,0.17-1.088,0.17h-0.633v6.871c0,0.512-0.121,0.9-0.369,1.168
				c-0.242,0.273-0.555,0.406-0.943,0.406c-0.367,0-0.67-0.133-0.918-0.406c-0.244-0.267-0.363-0.656-0.363-1.168v-6.871h-0.715
				c-0.389,0-0.682-0.084-0.892-0.262c-0.209-0.17-0.315-0.398-0.315-0.678C415.37,767.122,415.804,766.813,416.673,766.813"/>
			<path d="M425.163,773.388v2.168c0,0.523-0.133,0.92-0.375,1.18c-0.246,0.266-0.559,0.394-0.938,0.394
				c-0.381,0-0.688-0.131-0.926-0.4c-0.236-0.264-0.361-0.656-0.361-1.174v-7.223c0-1.166,0.42-1.748,1.262-1.748
				c0.434,0,0.742,0.135,0.934,0.408c0.189,0.273,0.295,0.674,0.316,1.207c0.309-0.533,0.625-0.934,0.949-1.207
				c0.332-0.273,0.762-0.408,1.309-0.408c0.549,0,1.072,0.135,1.586,0.408c0.516,0.273,0.772,0.637,0.772,1.084
				c0,0.315-0.111,0.58-0.326,0.781c-0.221,0.209-0.455,0.313-0.707,0.313c-0.1,0-0.33-0.063-0.691-0.18
				c-0.365-0.113-0.689-0.174-0.963-0.174c-0.381,0-0.693,0.104-0.932,0.299c-0.242,0.205-0.432,0.496-0.565,0.887
				c-0.129,0.395-0.219,0.865-0.273,1.404C425.185,771.948,425.163,772.61,425.163,773.388"/>
			<path d="M437.083,772.495h-5.074c0.01,0.588,0.125,1.111,0.355,1.559c0.234,0.447,0.539,0.787,0.924,1.018
				c0.385,0.227,0.805,0.34,1.27,0.34c0.311,0,0.592-0.033,0.85-0.111c0.254-0.07,0.504-0.185,0.744-0.342
				c0.242-0.152,0.461-0.318,0.664-0.5c0.203-0.174,0.467-0.416,0.791-0.719c0.135-0.113,0.324-0.174,0.568-0.174
				c0.268,0,0.481,0.074,0.648,0.223c0.166,0.146,0.244,0.35,0.244,0.617c0,0.234-0.09,0.508-0.268,0.818
				c-0.188,0.318-0.463,0.617-0.836,0.906c-0.375,0.285-0.84,0.527-1.398,0.715c-0.559,0.189-1.205,0.285-1.932,0.285
				c-1.67,0-2.963-0.473-3.887-1.422c-0.924-0.951-1.391-2.242-1.391-3.867c0-0.768,0.117-1.479,0.348-2.135
				c0.225-0.658,0.557-1.217,0.998-1.688c0.436-0.471,0.971-0.828,1.613-1.078c0.637-0.25,1.346-0.375,2.127-0.375
				c1.012,0,1.881,0.215,2.607,0.646c0.723,0.422,1.273,0.977,1.629,1.654c0.361,0.68,0.541,1.367,0.541,2.074
				c0,0.648-0.188,1.07-0.561,1.266C438.286,772.399,437.761,772.495,437.083,772.495 M432.009,771.021h4.701
				c-0.063-0.885-0.297-1.549-0.713-1.986c-0.418-0.441-0.959-0.66-1.641-0.66c-0.646,0-1.178,0.221-1.592,0.67
				C432.351,769.489,432.097,770.148,432.009,771.021"/>
			<path d="M447.87,772.495h-5.072c0.006,0.588,0.125,1.111,0.354,1.559c0.232,0.447,0.539,0.787,0.922,1.018
				c0.383,0.227,0.805,0.34,1.272,0.34c0.307,0,0.592-0.033,0.844-0.111c0.26-0.07,0.506-0.185,0.75-0.342
				c0.242-0.152,0.461-0.318,0.664-0.5c0.199-0.174,0.465-0.416,0.789-0.719c0.135-0.113,0.326-0.174,0.568-0.174
				c0.267,0,0.482,0.074,0.65,0.223c0.164,0.146,0.24,0.35,0.24,0.617c0,0.234-0.088,0.508-0.273,0.818
				c-0.178,0.318-0.455,0.617-0.83,0.906c-0.371,0.285-0.84,0.527-1.397,0.715c-0.557,0.189-1.207,0.285-1.934,0.285
				c-1.668,0-2.959-0.473-3.887-1.422c-0.924-0.951-1.389-2.242-1.389-3.867c0-0.768,0.115-1.479,0.348-2.135
				c0.227-0.658,0.559-1.217,0.996-1.688c0.436-0.471,0.973-0.828,1.613-1.078c0.639-0.25,1.352-0.375,2.129-0.375
				c1.01,0,1.879,0.215,2.613,0.646c0.721,0.422,1.266,0.977,1.621,1.654c0.359,0.68,0.545,1.367,0.545,2.074
				c0,0.648-0.191,1.07-0.56,1.266C449.071,772.399,448.546,772.495,447.87,772.495 M442.798,771.021h4.701
				c-0.064-0.885-0.305-1.549-0.715-1.986c-0.422-0.441-0.963-0.66-1.643-0.66c-0.647,0-1.176,0.221-1.594,0.67
				C443.136,769.489,442.882,770.148,442.798,771.021"/>
			<path d="M453.55,768.044v0.311c0.486-0.602,0.994-1.043,1.525-1.324c0.518-0.285,1.117-0.428,1.781-0.428
				c0.795,0,1.535,0.209,2.207,0.617c0.672,0.414,1.199,1.016,1.59,1.807c0.389,0.795,0.586,1.73,0.586,2.814
				c0,0.795-0.113,1.531-0.336,2.201c-0.225,0.668-0.537,1.227-0.93,1.68c-0.393,0.449-0.855,0.801-1.389,1.045
				c-0.543,0.242-1.111,0.363-1.729,0.363c-0.738,0-1.363-0.148-1.865-0.447c-0.502-0.291-0.982-0.732-1.441-1.305v3.893
				c0,1.135-0.416,1.709-1.244,1.709c-0.49,0-0.809-0.146-0.971-0.44c-0.152-0.299-0.234-0.723-0.234-1.291v-11.193
				c0-0.494,0.107-0.859,0.32-1.108c0.215-0.238,0.512-0.363,0.885-0.363c0.369,0,0.666,0.125,0.896,0.373
				C453.436,767.212,453.55,767.569,453.55,768.044 M458.634,771.812c0-0.686-0.105-1.273-0.315-1.764
				c-0.209-0.492-0.498-0.867-0.865-1.127c-0.367-0.264-0.783-0.396-1.232-0.396c-0.715,0-1.318,0.283-1.809,0.844
				c-0.492,0.566-0.74,1.394-0.74,2.492c0,1.027,0.244,1.834,0.736,2.406c0.486,0.574,1.086,0.859,1.813,0.859
				c0.428,0,0.83-0.127,1.197-0.373c0.371-0.252,0.664-0.627,0.883-1.127C458.522,773.124,458.634,772.519,458.634,771.812"/>
			<path d="M463.851,765.378c-0.363,0-0.67-0.115-0.924-0.336c-0.26-0.223-0.387-0.531-0.387-0.936c0-0.369,0.131-0.67,0.396-0.91
				c0.262-0.234,0.566-0.355,0.914-0.355c0.34,0,0.635,0.105,0.893,0.318c0.26,0.219,0.391,0.535,0.391,0.947
				c0,0.398-0.127,0.711-0.377,0.936C464.503,765.263,464.202,765.378,463.851,765.378 M465.134,768.056v7.502
				c0,0.516-0.123,0.908-0.369,1.172c-0.25,0.27-0.56,0.4-0.941,0.4c-0.381,0-0.685-0.133-0.928-0.406
				c-0.234-0.275-0.355-0.664-0.355-1.166v-7.428c0-0.51,0.121-0.894,0.355-1.154c0.242-0.264,0.547-0.391,0.928-0.391
				c0.381,0,0.691,0.127,0.941,0.391C465.011,767.235,465.134,767.599,465.134,768.056"/>
			<path d="M473.493,775.946l-2.283-3.766l-1.408,1.328v2.066c0,0.498-0.133,0.881-0.397,1.148
				c-0.258,0.273-0.566,0.406-0.906,0.406c-0.398,0-0.715-0.131-0.941-0.4c-0.227-0.264-0.344-0.656-0.344-1.174v-11.063
				c0-0.574,0.115-1.012,0.332-1.315c0.223-0.305,0.545-0.451,0.953-0.451c0.398,0,0.713,0.137,0.949,0.41
				c0.234,0.271,0.354,0.674,0.354,1.203v6.293l2.916-3.063c0.361-0.377,0.633-0.641,0.826-0.779c0.19-0.139,0.42-0.207,0.69-0.207
				c0.326,0,0.594,0.103,0.816,0.309c0.211,0.205,0.32,0.465,0.32,0.773c0,0.379-0.353,0.889-1.055,1.521l-1.377,1.262l2.658,4.184
				c0.193,0.313,0.34,0.543,0.424,0.705c0.084,0.16,0.131,0.32,0.131,0.463c0,0.412-0.115,0.734-0.342,0.975
				c-0.225,0.236-0.523,0.353-0.885,0.353c-0.316,0-0.564-0.08-0.734-0.256C474.02,776.702,473.784,776.392,473.493,775.946"/>
			<path d="M479.13,777.13c-0.393,0-0.728-0.125-1.014-0.381c-0.285-0.248-0.43-0.605-0.43-1.064c0-0.385,0.139-0.719,0.41-0.994
				c0.275-0.279,0.607-0.42,1.008-0.42c0.398,0,0.736,0.141,1.023,0.412c0.279,0.275,0.422,0.613,0.422,1.002
				c0,0.453-0.143,0.809-0.422,1.061C479.841,777.005,479.509,777.13,479.13,777.13"/>
			<path d="M492.028,773.921c0,0.32-0.098,0.668-0.291,1.033c-0.191,0.371-0.488,0.719-0.887,1.051
				c-0.395,0.332-0.891,0.602-1.494,0.803c-0.602,0.203-1.281,0.307-2.031,0.307c-1.605,0-2.857-0.469-3.758-1.4
				c-0.895-0.936-1.346-2.19-1.346-3.76c0-1.068,0.205-2.006,0.619-2.824c0.408-0.814,1.004-1.447,1.781-1.894
				c0.779-0.447,1.717-0.67,2.795-0.67c0.674,0,1.287,0.098,1.852,0.295c0.561,0.195,1.033,0.451,1.426,0.76
				c0.387,0.314,0.686,0.643,0.889,0.992c0.207,0.352,0.309,0.68,0.309,0.986c0,0.309-0.113,0.572-0.344,0.787
				c-0.234,0.215-0.516,0.324-0.838,0.324c-0.219,0-0.398-0.057-0.541-0.166c-0.145-0.111-0.305-0.289-0.478-0.541
				c-0.318-0.479-0.647-0.842-0.996-1.08c-0.344-0.242-0.781-0.361-1.314-0.361c-0.762,0-1.383,0.297-1.853,0.896
				c-0.467,0.596-0.703,1.42-0.703,2.455c0,0.488,0.063,0.939,0.184,1.348c0.117,0.406,0.291,0.756,0.52,1.043
				c0.23,0.287,0.504,0.506,0.826,0.654c0.324,0.154,0.682,0.227,1.065,0.227c0.521,0,0.967-0.121,1.336-0.361
				c0.377-0.24,0.703-0.607,0.986-1.102c0.158-0.291,0.328-0.518,0.51-0.684c0.182-0.164,0.408-0.25,0.676-0.25
				c0.316,0,0.58,0.123,0.785,0.363C491.921,773.392,492.028,773.649,492.028,773.921"/>
			<path d="M503.218,771.86c0,0.769-0.121,1.484-0.355,2.139c-0.246,0.652-0.592,1.213-1.049,1.678
				c-0.455,0.469-1.002,0.828-1.633,1.08c-0.639,0.248-1.35,0.375-2.139,0.375c-0.785,0-1.492-0.127-2.121-0.383
				c-0.623-0.248-1.17-0.613-1.625-1.082c-0.461-0.477-0.809-1.033-1.053-1.676c-0.229-0.645-0.35-1.356-0.35-2.131
				c0-0.787,0.123-1.506,0.357-2.158c0.242-0.654,0.59-1.213,1.039-1.674c0.451-0.461,0.994-0.816,1.631-1.07
				c0.645-0.248,1.35-0.373,2.121-0.373c0.785,0,1.498,0.125,2.139,0.381c0.639,0.252,1.184,0.615,1.645,1.08
				c0.457,0.475,0.803,1.029,1.039,1.672C503.099,770.368,503.218,771.077,503.218,771.86 M500.614,771.86
				c0-1.059-0.234-1.881-0.697-2.469c-0.463-0.596-1.09-0.889-1.875-0.889c-0.508,0-0.955,0.133-1.342,0.395
				c-0.387,0.262-0.682,0.648-0.891,1.164c-0.209,0.514-0.315,1.113-0.315,1.799c0,0.678,0.102,1.268,0.309,1.773
				c0.209,0.51,0.502,0.896,0.887,1.166c0.385,0.266,0.834,0.404,1.352,0.404c0.785,0,1.412-0.297,1.875-0.893
				C500.38,773.722,500.614,772.901,500.614,771.86"/>
			<path d="M513.11,772.05v3.447c0,0.547-0.121,0.951-0.369,1.227c-0.25,0.273-0.572,0.408-0.979,0.408
				c-0.393,0-0.713-0.135-0.951-0.408c-0.246-0.275-0.371-0.68-0.371-1.227v-4.131c0-0.654-0.022-1.162-0.064-1.525
				c-0.045-0.354-0.168-0.654-0.361-0.883c-0.197-0.234-0.51-0.352-0.932-0.352c-0.85,0-1.406,0.291-1.676,0.881
				c-0.268,0.576-0.406,1.414-0.406,2.508v3.502c0,0.537-0.123,0.945-0.361,1.223c-0.25,0.273-0.568,0.412-0.965,0.412
				c-0.396,0-0.717-0.139-0.967-0.412c-0.252-0.277-0.377-0.686-0.377-1.223v-7.42c0-0.488,0.111-0.859,0.336-1.111
				c0.228-0.256,0.525-0.381,0.889-0.381c0.357,0,0.652,0.123,0.892,0.355c0.236,0.238,0.354,0.566,0.354,0.984v0.244
				c0.453-0.535,0.935-0.932,1.445-1.18c0.516-0.26,1.082-0.387,1.713-0.387c0.65,0,1.211,0.131,1.678,0.391
				c0.469,0.26,0.854,0.654,1.16,1.176c0.439-0.527,0.908-0.922,1.41-1.18c0.5-0.258,1.053-0.387,1.662-0.387
				c0.705,0,1.32,0.143,1.834,0.42c0.51,0.277,0.893,0.68,1.146,1.195c0.221,0.473,0.33,1.209,0.33,2.217v5.063
				c0,0.547-0.121,0.951-0.367,1.227c-0.246,0.273-0.574,0.408-0.978,0.408c-0.395,0-0.715-0.139-0.965-0.412
				c-0.25-0.277-0.377-0.686-0.377-1.223v-4.361c0-0.559-0.023-1.004-0.068-1.338c-0.047-0.338-0.178-0.621-0.383-0.848
				c-0.213-0.227-0.531-0.344-0.953-0.344c-0.342,0-0.666,0.108-0.975,0.309c-0.307,0.197-0.547,0.477-0.721,0.813
				C513.208,770.165,513.11,770.94,513.11,772.05"/>
		</g>
		<g>
			<path d="M392.405,771.231c-0.002-0.004-0.002-0.01-0.002-0.017C392.403,771.222,392.403,771.227,392.405,771.231z"/>
			<path d="M392.536,772.062c0.002,0,0.002,0,0.003,0c-0.05-0.236-0.088-0.471-0.119-0.703
				C392.451,771.593,392.489,771.827,392.536,772.062z"/>
			<path d="M393.395,774.468c-0.006-0.01-0.011-0.021-0.017-0.033C393.384,774.446,393.389,774.458,393.395,774.468z"/>
			<path d="M393.313,774.308c-0.022-0.045-0.044-0.09-0.065-0.135C393.269,774.22,393.29,774.263,393.313,774.308z"/>
			<path d="M392.777,772.987c0.127,0.4,0.28,0.789,0.457,1.158c-0.18-0.377-0.33-0.766-0.454-1.158
				C392.78,772.987,392.778,772.987,392.777,772.987z"/>
			<path d="M402.443,761.296c0.5,0,0.871,0.039,1.294,0.111l0.121-0.764c0,0-1.171-0.359-2.711-0.234l-0.121-0.414
				c0.478-0.102,0.838-0.527,0.838-1.035c0-0.582-0.474-1.053-1.057-1.053c-0.583,0-1.056,0.471-1.056,1.053
				c0,0.508,0.358,0.934,0.836,1.035l0.134,0.463c-1.634,0.225-2.935,0.861-2.935,0.861l0.23,0.705
				c0.989-0.328,1.846-0.529,2.624-0.613C401.402,761.331,401.976,761.296,402.443,761.296z"/>
			<path d="M393.375,765.153l0.006-0.008c0.039-0.049,0.076-0.096,0.113-0.143l-0.313-0.225l-0.488-0.357
				c-0.027,0.039-0.795,0.744-1.401,2.049c-0.025-0.041-0.056-0.082-0.09-0.119c-0.182-0.199-0.435-0.301-0.758-0.295
				c-0.004,0-0.009,0-0.015,0c-0.2,0-0.337-0.066-0.427-0.147c0.089-0.113,0.143-0.256,0.143-0.414c0-0.367-0.3-0.668-0.669-0.668
				c-0.369,0-0.669,0.301-0.669,0.668c0,0.371,0.3,0.67,0.669,0.67c0.058,0,0.113-0.01,0.167-0.021
				c0.164,0.183,0.425,0.342,0.808,0.334c0.197-0.002,0.341,0.049,0.438,0.156c0.111,0.121,0.148,0.295,0.16,0.428
				c-0.001,0.002-0.001,0.004-0.003,0.004c-0.436,1.189-0.311,2.67-0.311,2.67l1.057,0.043c0.022-0.539,0.099-1.482,0.372-2.23
				C392.689,766.099,393.348,765.192,393.375,765.153z"/>
			<path d="M411.642,762.179c-0.367,0-0.668,0.299-0.668,0.67c0,0.057,0.008,0.111,0.023,0.164c-0.184,0.166-0.344,0.428-0.338,0.81
				c0.004,0.197-0.047,0.34-0.154,0.438c-0.084,0.074-0.191,0.115-0.295,0.141c-0.787-1.104-1.756-1.775-1.756-1.775l-0.76,0.813
				c0.574,0.522,1.16,1.176,1.729,1.99c0.395,0.565,0.799,1.291,1.137,2.016l1.023-0.486c0,0-0.467-1.156-1.125-2.191
				c0.113-0.041,0.228-0.104,0.33-0.193c0.201-0.18,0.299-0.435,0.293-0.758c-0.002-0.207,0.066-0.348,0.148-0.441
				c0.115,0.088,0.258,0.143,0.412,0.143c0.371,0,0.67-0.299,0.67-0.668C412.311,762.477,412.013,762.179,411.642,762.179z"/>
			<path d="M408.985,771.382c-1.41,0.686-3.729,1.594-6.782,2.02c-1.197,0.166-2.359,0.227-3.428,0.227
				c-1.391,0-2.62-0.104-3.563-0.223c-1.076-0.135-1.918-0.301-2.432-0.418c0.124,0.393,0.273,0.781,0.454,1.158
				c0.003,0.01,0.008,0.021,0.013,0.027c0.021,0.045,0.043,0.09,0.065,0.135c0.022,0.043,0.043,0.086,0.065,0.127
				c0.006,0.012,0.011,0.023,0.017,0.033c0.303,0.57,0.667,1.094,1.081,1.549c1.44,1.574,2.907,1.824,2.921,1.826l0.023,0.002
				l0.022,0.008c0.013,0.006,1.314,0.426,3.292,0.426c1.946,0,3.855-0.393,5.673-1.168c1.348-0.69,2.623-1.736,3.254-2.67
				c0.488-0.723,0.842-1.492,1.051-2.293c0.111-0.426,0.199-1.108,0.146-1.826C410.46,770.589,409.833,770.968,408.985,771.382z"/>
			<path d="M393.828,765.487c-0.041,0.061-0.652,0.926-1.135,2.254c-0.362,0.994-0.346,2.443-0.346,2.459v0.004
				c0,0.34,0.019,0.676,0.057,1.01c0,0.008,0,0.014,0.002,0.017c0.004,0.043,0.011,0.084,0.015,0.127
				c0.03,0.232,0.069,0.467,0.119,0.703c0.7,0.178,4.878,1.152,9.549,0.502c2.927-0.408,5.149-1.273,6.499-1.928
				c1.121-0.543,1.842-1.035,2.119-1.238c-0.277-1.027-1.041-2.641-1.742-3.647c-2.006-2.865-4.168-3.6-5.277-3.783
				c-0.425-0.068-0.763-0.109-1.243-0.109c-0.447,0-1.002,0.037-1.744,0.115c-0.743,0.076-1.572,0.272-2.532,0.596
				c-1.348,0.451-2.567,1.158-3.527,2.047l-0.033,0.031C394.466,764.778,394.169,765.054,393.828,765.487z M406.097,764.821
				c0.961,0,1.744,0.781,1.744,1.742c0,0.963-0.783,1.744-1.744,1.744c-0.961,0-1.742-0.781-1.742-1.744
				C404.354,765.602,405.136,764.821,406.097,764.821z M397.855,764.751c1.557,0,2.817,1.262,2.817,2.818
				c0,1.555-1.26,2.815-2.817,2.815c-1.555,0-2.816-1.26-2.816-2.815C395.04,766.013,396.301,764.751,397.855,764.751z"/>
		</g>
	</g>
	<circle style="fill:#095A78;" cx="400" cy="400" r="301.29"/>
</g>
<g id="Objects">
	<g>
		<path style="fill:#FEA55D;" d="M554.772,320.174l2.598,3.251c2.184,2.733,5.603,4.175,9.085,3.832l8.571-0.844
			c2.878-0.283,5.372,1.978,5.372,4.869v11.595c0,0,25.575-1.582,29.29-5.751c1.61-1.807,2.325-3.715,2.618-5.297
			c0.398-2.15,2.212-3.746,4.392-3.915l23.141-1.789c2.057-0.159,4.041-0.826,5.776-1.942l6.233-4.01H554.772z"/>
		<g>
			<path style="fill:#FEA55D;" d="M273.863,383.66c-0.29,1.12-0.8,2.17-1.49,3.1l-6.38,8.64c-1.68,2.27-2.32,5.14-1.78,7.91
				l2.4,12.22l-23.08,4.14c0,0-3.55-18.68-7.1-22.5c-3.55-3.83-25.44-15.45-36.09-15.85c-7.23-0.28-15.41-5.38-19.92-8.63
				c-1.98-1.43-2.51-4.16-1.2-6.22c0.88-1.38,2.38-2.14,3.9-2.14c0.85,0,1.7,0.23,2.47,0.72l6.6,4.21c0.67,0.43,1.36,0.79,2.07,1.1
				c0,0,0.03,0.02,0.09,0.05c3.73,1.61,8,1.68,11.84,0.12c0.29-0.12,0.44-0.39,0.44-0.65c0-0.1-0.02-0.21-0.07-0.3
				c-0.05-0.12-0.14-0.22-0.26-0.3l-1.86-1.2l-5.9-3.81c-1.73-1.11-3.14-2.66-4.1-4.48l-8.98-17.04c-0.68-1.28-0.62-2.83,0.15-4.06
				c0.81-1.27,2.12-1.89,3.43-1.89c1.51,0,3.02,0.83,3.72,2.43l2.84,6.48l3.77,6.79c0.55,1,1.19,1.95,1.92,2.82l0.01,0.01
				c0.63,0.76,1.32,1.46,2.06,2.11l5.92,5.17c0.56,0.49,1.4,0.52,1.99,0.06c0.39-0.3,0.61-0.76,0.61-1.24c0-0.14-0.02-0.27-0.05-0.4
				c-0.01-0.04-0.02-0.09-0.04-0.13l-4.27-12.02c-1.62-4.54-2.31-9.35-2.05-14.16l0.32-5.84c0.1-1.8,1.31-3.36,3.03-3.92
				c0.45-0.14,0.9-0.21,1.34-0.21c2.25,0,4.24,1.76,4.36,4.16l0.67,13.69c0.03,0.59,0.08,1.18,0.15,1.76l0.01,0.01
				c0.3,2.61,1,5.16,2.09,7.56l0.68,1.51c0.49,1.08,1.56,1.8,2.74,1.87c0.06,0.01,0.13,0.01,0.19,0.01c0.7,0,1.37-0.23,1.9-0.63
				c0.54-0.4,0.96-0.96,1.16-1.63l3.43-11.08c0.89-2.89,3.56-4.85,6.57-4.85h0.65c1.88,0,3.74,0.41,5.44,1.21l5.23,2.47
				c1.47,0.69,2.23,2.34,1.81,3.91c-0.4,1.47-1.74,2.47-3.23,2.47c-0.12,0-0.25-0.01-0.37-0.02l-5.4-1.73
				c-1.53-0.49-3.16,0.4-3.57,1.96l-0.65,2.51c-1.11,2.61-1.1,5.55,0.01,8.15c0.84,1.97,2.02,3.74,3.46,5.25
				c0.24,0.26,0.49,0.5,0.75,0.74c0.25,0.24,0.52,0.48,0.79,0.7c2.16,1.78,4.72,3.04,7.53,3.64l5.7,1.22
				c1.17,0.25,2.38-0.21,3.1-1.16c0.41-0.55,0.62-1.21,0.62-1.86c0-0.71-0.25-1.42-0.74-1.99l-3.24-3.78
				c-1.66-1.94-2.65-4.36-2.83-6.9l-0.41-5.69c-0.13-1.84,0.28-3.68,1.19-5.28c0.4-0.7,0.96-1.27,1.63-1.66
				c0.67-0.4,1.45-0.61,2.25-0.61c0.91,0,1.78,0.28,2.5,0.77c0.72,0.48,1.3,1.18,1.64,2.03l0.65,1.63l1.78,10.21l0.12,0.41
				c1.48,4.9,4,9.41,7.4,13.24l3.35,3.78C273.903,375.73,274.883,379.82,273.863,383.66z"/>
			<g>
				<path style="fill:#EB924B;" d="M261.673,370.021c0,0-48.66,18.54-55.48,0.51c0.29-0.12,0.44-0.39,0.44-0.65
					c0-0.1-0.02-0.21-0.07-0.3l2.72-6.97l2.55-1.58l9.22-5.71l12.98,2.74c0.84,1.97,2.02,3.74,3.46,5.25
					c0.24,0.26,0.49,0.5,0.75,0.74c0.25,0.24,0.52,0.48,0.79,0.7c2.16,1.78,4.72,3.04,7.53,3.64l5.7,1.22
					c1.17,0.25,2.38-0.21,3.1-1.16c0.41-0.55,0.62-1.21,0.62-1.86c0-0.71-0.25-1.42-0.74-1.99l-3.24-3.78
					c-1.66-1.94-2.65-4.36-2.83-6.9l-0.41-5.69C248.763,348.23,254.343,361.801,261.673,370.021z"/>
				<path style="fill:#EB924B;" d="M209.073,374.621c-5.13,1.14-13.77-3.67-14.72-4.21c3.73,1.61,8,1.68,11.84,0.12
					c0.29-0.12,0.44-0.39,0.44-0.65c0-0.1-0.02-0.21-0.07-0.3c-0.05-0.12-0.14-0.22-0.26-0.3l0.57-0.495l6.3-0.705
					C213.173,368.081,214.503,373.41,209.073,374.621z"/>
				<path style="fill:#EB924B;" d="M211.273,362.671l-1.1,5.41l-8.87-12.75c0.63,0.76,1.32,1.46,2.06,2.11l5.92,5.17
					C209.843,363.1,210.683,363.13,211.273,362.671z"/>
				<path style="fill:#EB924B;" d="M221.673,356.91l-5.32,1.32l-1.01-13.87l0.01,0.01c0.3,2.61,1,5.16,2.09,7.56l0.68,1.51
					c0.49,1.08,1.56,1.8,2.74,1.87L221.673,356.91z"/>
				<path style="fill:#EB924B;" d="M236.123,361.69v0.01l-8.7-3.47l7.25-10.83l-0.65,2.51c-1.11,2.61-1.1,5.55,0.01,8.15
					C234.583,359.361,235.293,360.581,236.123,361.69z"/>
			</g>
		</g>
		<g>
			<path d="M333.023,727.223L333.023,727.223c0,2.221,1.811,4.016,4.032,3.995l23.312-0.214c2.37-0.022,4.555-1.285,5.756-3.328
				l0.368-0.626c0.713-1.213,2.015-1.958,3.423-1.958h0.805c2.193,0,3.97,1.777,3.97,3.97v2.817h9.012v-11.09
				c0-2.783-0.621-5.531-1.819-8.043l-4.316-9.054l-13.378,1.775l-1.576,3.751c-2.647,6.302-8.044,11.081-14.659,12.804
				c-3.454,0.9-7.114,1.227-10.897,1.208C334.834,723.221,333.023,725.003,333.023,727.223z"/>
			<path style="fill:#E9F2F5;" d="M393.253,638.901l-0.31,2.24l-3.15,22.49l-6.09,43.61h-38.2l-7.47-63.68
				c-0.01-0.03-0.01-0.04-0.01-0.04l-0.05-0.47l-1.01-8.59L393.253,638.901z"/>
			<path d="M462.36,727.223L462.36,727.223c0,2.221-1.811,4.016-4.032,3.995l-23.312-0.214c-2.37-0.022-4.555-1.285-5.756-3.328
				l-0.368-0.626c-0.713-1.213-2.015-1.958-3.423-1.958h-0.805c-2.193,0-3.97,1.777-3.97,3.97v2.817h-9.012v-11.09
				c0-2.783,0.621-5.531,1.819-8.043l4.316-9.054l13.378,1.775l1.576,3.751c2.647,6.302,8.044,11.081,14.659,12.804
				c3.454,0.9,7.114,1.227,10.897,1.208C460.548,723.221,462.36,725.003,462.36,727.223z"/>
			<path style="fill:#E9F2F5;" d="M458.413,634.461l-1.05,8.99l-0.29,2.42c0,0,0,0.01-0.01,0.04l-7.19,61.33h-38.19l-5.23-37.44
				l-3.99-28.56l-0.33-2.34L458.413,634.461z"/>
			<polygon style="fill:#DFE8EB;" points="392.943,641.141 389.793,663.63 389.173,664.411 338.023,643.521 336.963,643.091 
				337.973,643.05 			"/>
			<polygon style="fill:#DFE8EB;" points="457.363,643.451 457.073,645.87 406.453,669.8 402.463,641.24 			"/>
			<path style="fill:#DFE8EB;" d="M352.603,707.24h-7.1l-7.47-63.68C338.373,645.42,349.253,704.94,352.603,707.24z"/>
			<path style="fill:#DFE8EB;" d="M457.063,645.911l-7.19,61.33h-12.85C447.453,701.411,456.773,647.591,457.063,645.911z"/>
		</g>
		<g>
			<path style="fill:#FFFFFF;" d="M620.343,332.241c0,0-34.65,103.73-50.62,115.77c-11.59,8.74-66.18,5.77-95.25,3.47
				c-2.42-0.2-4.67-0.39-6.7-0.56c-0.59-0.04-1.15-0.09-1.7-0.14l3.97,10.92l35.15,96.78l16.35,45c2.15,5.92-0.03,12.52-5.23,16.07
				c-12.97,8.87-27,15.86-41.71,21.06c-44.78,15.84-95.9,15.16-143.06,0.91c-19.14-5.77-37.62-13.78-54.76-23.83
				c-5.89-3.46-8.42-10.67-5.87-17.01l42.44-105.6c-14.35,9.01-34.57,20.15-46.74,20.15c-20.41,0-36.39-97.04-36.39-97.04
				l43.79-5.18c-0.25,2.19-0.36,4.43-0.34,6.69v0.03c0.22,24.03,14.69,50.4,16.31,55.27c1.34,4.01,29.43-18.13,43.22-29.31
				c0.01,0,0.01-0.01,0.01-0.01l5.46-13.58h120.61l0.43,1.17l2.17-10.05c0,0,75.44,0.44,80.76-7.54
				c5.12-7.68,34.75-66.56,30.77-77.46c-0.16-0.43-0.34-0.78-0.54-1.05c-0.01-0.03-0.02-0.04-0.02-0.04L620.343,332.241z"/>
			<rect x="369.514" y="466.901" style="fill:#E9F2F5;" width="6.205" height="98.558"/>
			<path style="fill:#E9F2F5;" d="M331.543,641.521c-19.14-5.77-37.62-13.78-54.76-23.83c-5.89-3.46-8.42-10.67-5.87-17.01
				l42.44-105.6c-14.35,9.01-34.57,20.15-46.74,20.15c-20.41,0-36.39-97.04-36.39-97.04l43.79-5.18c-0.25,2.19-0.36,4.43-0.34,6.69
				v0.03c-0.49,3.22-22.01,136.46,59.53,25.97C332.473,447.681,276.663,598.51,331.543,641.521z"/>
			<path style="fill:#E9F2F5;" d="M521.543,603.481c2.15,5.92-0.03,12.52-5.23,16.07c-12.97,8.87-27,15.86-41.71,21.06
				c22.15-32.75,4.32-135.48-4.56-178.91L521.543,603.481z"/>
			<path style="fill:#E9F2F5;" d="M620.343,332.241c0,0-34.65,103.73-50.62,115.77c-12.56,9.47-75.58,5.19-101.95,2.91
				c-1.23-5.68-2-8.92-2-8.92s71.98-3,101.98-10.82c28.01-7.3,10.73-82.96,5.66-92.96c-0.3-0.59-0.49-0.95-0.54-1.05
				c-0.01-0.03-0.02-0.04-0.02-0.04L620.343,332.241z"/>
			<path style="fill:#E9F2F5;" d="M505.193,558.481c-3.74,6.73-6.89,11.57-8.3,11.76c-4.74,0.66-36.68-134.83-37.17-136.95
				l14.75,18.19c-2.42-0.2-4.67-0.39-6.7-0.56c-0.59-0.04-1.15-0.09-1.7-0.14l3.97,10.92L505.193,558.481z"/>
			<g>
				<g>
					<circle cx="393.245" cy="505.839" r="4.072"/>
					<circle cx="431.169" cy="505.839" r="4.072"/>
				</g>
				<g>
					<circle cx="393.245" cy="535.649" r="4.072"/>
					<circle cx="431.169" cy="535.649" r="4.072"/>
				</g>
				<g>
					<path d="M397.317,565.46c0,2.249-1.823,4.072-4.072,4.072c-2.249,0-4.072-1.823-4.072-4.072c0-2.249,1.823-4.072,4.072-4.072
						C395.494,561.388,397.317,563.211,397.317,565.46z"/>
					<path d="M435.241,565.46c0,2.249-1.823,4.072-4.072,4.072c-2.249,0-4.072-1.823-4.072-4.072c0-2.249,1.823-4.072,4.072-4.072
						C433.418,561.388,435.241,563.211,435.241,565.46z"/>
				</g>
				<g>
					<circle cx="393.245" cy="595.27" r="4.072"/>
					<circle cx="431.169" cy="595.27" r="4.072"/>
				</g>
			</g>
		</g>
		<g>
			<g>
				<path style="fill:#DA0A08;" d="M467.563,414.461c-0.87,11.66-9.64,22.1-23.22,29.48c-12.74,6.91-29.7,11.13-48.31,11.13
					c-29.12,0-54.18-10.33-65.36-25.15c-3.6-4.77-5.76-10.01-6.16-15.52l1.41-3.38l1.05-2.51l-1.62-2.75
					c-4.43-7.1,35.03-35.74,70.68-35.74c34.11,0,62.65,14.17,69.85,33.14l-3.54,2.75L467.563,414.461z"/>
				<path style="fill:#B50906;" d="M382.963,441.82c0,0-33.85-2.16-52.29-11.9c-3.6-4.77-5.76-10.01-6.16-15.52l1.41-3.38
					c0,0,18.09,19.89,39.92,25.56C387.673,442.241,382.963,441.82,382.963,441.82z"/>
				<path style="fill:#B50906;" d="M467.563,414.461c-0.87,11.66-9.64,22.1-23.22,29.48l-24.1,4.3l24.15-10l-32.86,3.44
					c7.26-0.91,40.96-6.67,50.81-35.77L467.563,414.461z"/>
			</g>
			<g>
				<path style="fill:#DA0A08;" d="M452.823,501.771c0,0-1.2-0.22-3.2-0.76c-6.38-1.73-20.94-6.77-30.83-18.6
					c-7.19-8.61-10.4-19.01-11.83-26.58c-1.16-6.09-1.16-10.34-1.16-10.34s21.04,3.81,34.02,19.35
					C452.813,480.38,452.823,501.771,452.823,501.771z"/>
				<path style="fill:#B50906;" d="M449.623,501.01c-6.38-1.73-20.94-6.77-30.83-18.6c-7.19-8.61-10.4-19.01-11.83-26.58
					c6.38,1.73,20.94,6.77,30.83,18.6C444.983,483.04,448.193,493.44,449.623,501.01z"/>
			</g>
			<g>
				<path style="fill:#B50906;" d="M391.873,448.6c0,0-7.24,20.12-24.72,30.35c-13.42,7.85-28.96,7.6-35.46,7.06
					c-1.97-0.17-3.11-0.36-3.11-0.36s7.25-20.12,24.72-30.35c8.02-4.69,16.8-6.49,23.95-7.06
					C385.693,447.57,391.873,448.6,391.873,448.6z"/>
				<path style="fill:#DA0A08;" d="M380.363,448.6c0,0-7.24,20.12-24.72,30.35c-8.02,4.69-16.8,6.49-23.95,7.06
					c-1.97-0.17-3.11-0.36-3.11-0.36s7.25-20.12,24.72-30.35c8.02-4.69,16.8-6.49,23.95-7.06
					C379.223,448.41,380.363,448.6,380.363,448.6z"/>
			</g>
			<ellipse style="fill:#B50906;" cx="395.547" cy="448.012" rx="18.293" ry="15.028"/>
		</g>
		<path style="fill:#FFFFFF;" d="M410.273,441.82l0.6-0.06C410.593,441.79,410.393,441.81,410.273,441.82z"/>
		<g>
			<path style="fill:#FEA55D;" d="M473.973,353.991c0,42.04-33.59,76.22-75.39,77.19c-0.61,0.02-1.22,0.03-1.83,0.03
				c-42.65,0-77.22-34.57-77.22-77.22s34.57-77.22,77.22-77.22C439.393,276.771,473.973,311.341,473.973,353.991z"/>
			<path style="fill:#FC8A4A;" d="M473.973,353.991c0,42.04-33.59,76.22-75.39,77.19c9.74-13.7,6.07-88.28,1.47-94.05
				c-4.88-6.13-3.3-60.36-3.3-60.36C439.393,276.771,473.973,311.341,473.973,353.991z"/>
			<ellipse style="fill:#D46222;" cx="399.529" cy="388.592" rx="21.965" ry="13.574"/>
			<ellipse style="fill:#FFFFFF;" cx="399.529" cy="383.592" rx="21.965" ry="13.574"/>
			<path style="fill:#D46222;" d="M399.535,376.415c-13.149,0-23.816,6.08-23.816,13.58h5.604c0-5.74,8.152-10.38,18.211-10.38
				c10.049,0,18.201,4.64,18.201,10.38h5.604C423.34,382.495,412.684,376.415,399.535,376.415z"/>
			<g>
				<g>
					<path style="fill:#6B2706;" d="M456.13,388.128c-1.551-4.069-3.627-7.974-6.432-11.651c-17.76-23.276-33.949,2.725-51.28-7.101
						c1.551,4.069,3.627,7.975,6.433,11.653C422.611,404.305,438.799,378.301,456.13,388.128z"/>
				</g>
				<g>
					<path style="fill:#6B2706;" d="M340.706,388.128c1.551-4.069,3.627-7.974,6.432-11.651c17.761-23.276,33.949,2.725,51.28-7.101
						c-1.551,4.069-3.627,7.975-6.433,11.653C374.225,404.305,358.036,378.301,340.706,388.128z"/>
				</g>
			</g>
			<g>
				<g>
					<path style="fill:#572005;" d="M456.133,388.13c-17.33-9.83-33.52,16.17-51.28-7.1c-2.81-3.68-4.88-7.58-6.44-11.65
						c1.95,1.1,3.89,1.76,5.82,2.07c0.2,0.28,0.41,0.56,0.62,0.84c15.75,20.65,30.27,2.52,45.45,5.03
						C452.813,380.741,454.703,384.371,456.133,388.13z"/>
				</g>
				<g>
					<path style="fill:#572005;" d="M398.413,369.38c-1.55,4.07-3.62,7.97-6.43,11.65c-17.76,23.27-33.95-2.73-51.28,7.1
						c1.43-3.76,3.32-7.39,5.81-10.81c15.18-2.52,29.71,15.63,45.47-5.03c0.21-0.28,0.42-0.56,0.62-0.84
						C394.523,371.13,396.463,370.48,398.413,369.38z"/>
				</g>
			</g>
			<path style="fill:#602D00;" d="M379.38,320.21l-23.397,8.442c-2.816,1.016-5.923-0.443-6.939-3.259l0,0
				c-1.016-2.816,0.443-5.923,3.259-6.939l23.397-8.442c2.816-1.016,5.923,0.443,6.939,3.259l0,0
				C383.656,316.087,382.197,319.193,379.38,320.21z"/>
			<path style="fill:#602D00;" d="M413.736,320.21l23.397,8.442c2.816,1.016,5.923-0.443,6.939-3.259l0,0
				c1.016-2.816-0.443-5.923-3.259-6.939l-23.397-8.442c-2.816-1.016-5.923,0.443-6.939,3.259l0,0
				C409.46,316.087,410.92,319.193,413.736,320.21z"/>
			<ellipse style="fill:#FEB36D;" cx="398.418" cy="354.905" rx="17.751" ry="22.606"/>
			<g>
				<circle style="fill:#FC8A4A;" cx="474.574" cy="355.322" r="18.195"/>
				<g>
					<g>
						<path style="fill:#DB7841;" d="M477.258,346.156c-0.467-0.173-0.854,0.421-0.506,0.776c4.391,4.485,8.982,6.139,3.418,14.337
							c-0.676,0.955-1.74,2.432-2.561,3.569c-0.301,0.416,0.185,0.95,0.624,0.685c1.19-0.719,2.453-1.659,3.658-2.792
							C488.068,356.747,487.096,349.794,477.258,346.156z"/>
					</g>
					<path style="fill:#DB7841;" d="M482.458,351.6c0,0.784-1.466,1.42-3.274,1.42s-3.274-0.636-3.274-1.42s1.466-1.42,3.274-1.42
						S482.458,350.816,482.458,351.6z"/>
				</g>
			</g>
			<g>
				<circle style="fill:#FEA55D;" cx="320.108" cy="355.322" r="18.195"/>
				<g>
					<g>
						<path style="fill:#D48A4E;" d="M318.371,346.156c0.467-0.173,0.854,0.421,0.506,0.776c-4.391,4.485-8.982,6.139-3.418,14.337
							c0.676,0.955,1.74,2.432,2.561,3.569c0.301,0.416-0.185,0.95-0.624,0.685c-1.19-0.719-2.453-1.659-3.658-2.792
							C307.56,356.747,308.532,349.794,318.371,346.156z"/>
					</g>
					<path style="fill:#D48A4E;" d="M319.011,351.6c0,0.784-1.466,1.42-3.274,1.42s-3.274-0.636-3.274-1.42s1.466-1.42,3.274-1.42
						S319.011,350.816,319.011,351.6z"/>
				</g>
			</g>
			<path d="M357.676,342.505c-0.328,0-0.658-0.107-0.934-0.328c-0.648-0.517-0.753-1.461-0.237-2.108
				c0.205-0.257,5.087-6.287,11.195-6.355c3.051-0.031,5.83,1.401,8.223,4.267c0.531,0.636,0.446,1.582-0.19,2.113
				c-0.637,0.531-1.582,0.446-2.113-0.19c-1.813-2.17-3.709-3.21-5.887-3.19c-4.7,0.052-8.842,5.175-8.884,5.227
				C358.553,342.312,358.117,342.505,357.676,342.505z"/>
			<path d="M437.669,342.505c-0.44,0-0.876-0.192-1.172-0.563c-0.05-0.061-4.22-5.183-8.895-5.228c-0.022,0-0.042,0-0.063,0
				c-2.12,0-4.023,1.044-5.815,3.19c-0.53,0.636-1.476,0.721-2.113,0.19c-0.636-0.531-0.721-1.477-0.189-2.113
				c2.365-2.832,5.096-4.267,8.116-4.267c0.036,0,0.071,0,0.107,0c6.108,0.068,10.991,6.098,11.196,6.355
				c0.517,0.647,0.41,1.591-0.237,2.108C438.328,342.398,437.997,342.505,437.669,342.505z"/>
			<g>
				<path style="fill:#602D00;" d="M336.603,305.44l-3.4,28.14l-2.2,14.66l-6.49,1.94l-4.41-13.05l-0.11-0.58
					c-0.65-3.31-0.56-6.72,0.27-9.99l2.21-8.77c1.27-5.06,5-9.14,9.93-10.87L336.603,305.44z"/>
				<path style="fill:#4A2300;" d="M336.603,305.44l-4.2,1.48c-4.93,1.73-8.66,5.81-9.93,10.87l-2.21,8.77
					c-0.83,3.27-0.92,6.68-0.27,9.99l0.11,0.58l4.41,13.05c0,0-1.371-5.98-1.138-13.961l6.423,4.191
					c-3.544-3.919-5.207-7.524-5.983-9.867c0.286-2.231,0.727-4.531,1.365-6.841l3.403,1.05c-1.253-1.293-1.802-3.549-2.044-5.152
					C328.545,314.458,331.702,309.484,336.603,305.44z"/>
			</g>
			<g>
				<path style="fill:#602D00;" d="M473.863,336.551l-0.11,0.58l-4.41,13.05l-6.49-1.94l-2.2-14.66l-3.4-28.14
					c0,0,0.01,0.01,0.04,0.02l4.16,1.46c4.93,1.73,8.66,5.81,9.93,10.87l2.21,8.77C474.423,329.831,474.513,333.241,473.863,336.551
					z"/>
				<path style="fill:#4A2300;" d="M465.792,311.244c0,0,0.588,9.162-2.619,12.907h8L465.792,311.244z"/>
				<path style="fill:#4A2300;" d="M471.173,327.81c0,0-4,14.78-6.75,18.315l8.5-10.911L471.173,327.81z"/>
				<path style="fill:#4A2300;" d="M473.593,326.56l-2.21-8.77c-1.27-5.06-5-9.14-9.93-10.87l-4.16-1.46
					c0.881,0.436,16.574,8.69,12.849,39.376c-0.25,1.107-7.289,3.404-7.289,3.404l6.49,1.94l4.41-13.05l0.11-0.58
					C474.513,333.241,474.423,329.831,473.593,326.56z"/>
			</g>
		</g>
		<g>
			
				<ellipse transform="matrix(0.2159 -0.9764 0.9764 0.2159 328.8821 730.6039)" style="fill:#E8E8E8;" cx="619.343" cy="160.527" rx="7.667" ry="7.667"/>
			<path style="fill:#E0E0E0;" d="M627.013,160.531c0,4.23-3.44,7.66-7.67,7.66c-0.69,0-1.36-0.09-2-0.26
				c3.26-0.89,5.67-3.86,5.67-7.4c0-3.55-2.41-6.52-5.67-7.4c0.64-0.18,1.31-0.27,2-0.27
				C623.573,152.861,627.013,156.29,627.013,160.531z"/>
		</g>
		<g>
			<g>
				<path style="fill:#FFFFFF;" d="M469.913,204.13c0.13,3.18-0.08,6.43-0.67,9.72l-0.93,6.74l-2.87,20.8l-8.84,64.05
					c-5.29-3.62-10.59-6.76-15.88-9.41c-33.43-16.81-66.85-14.51-100.28,6.88c-1.28,0.81-2.56,1.66-3.84,2.53l-10.25-74.26
					l-0.52-3.78l-1.87-13.55c-0.59-3.29-0.8-6.54-0.67-9.72c-0.08-0.97-0.14-1.94-0.14-2.92c0-5.61,1.45-10.99,4.12-16
					c0.41-0.79,0.86-1.56,1.34-2.32c3.48-5.59,8.5-10.66,14.72-14.97c2.86-1.99,5.98-3.81,9.31-5.46c12.25-6.03,27.47-9.6,43.96-9.6
					c0.22,0,0.43,0,0.65,0.01c2.85,0.01,5.65,0.13,8.41,0.36h0.01c14.87,1.2,28.36,5.33,39.1,11.48c5.11,2.92,9.59,6.29,13.31,10.03
					c4.49,4.5,7.86,9.53,9.86,14.91c0.59,1.55,1.05,3.14,1.39,4.75c0.48,2.22,0.73,4.5,0.73,6.81
					C470.063,202.191,470.003,203.161,469.913,204.13z"/>
				<circle style="fill:#FFFFFF;" cx="304.733" cy="180.685" r="51.25"/>
				
					<ellipse transform="matrix(0.2353 -0.9719 0.9719 0.2353 164.8206 443.4994)" style="fill:#FFFFFF;" cx="364.246" cy="117.009" rx="55.029" ry="55.029"/>
				<path style="fill:#FFFFFF;" d="M503.513,117.23c0,5.04-0.63,9.93-1.82,14.6c-6.5,25.58-29.69,44.5-57.29,44.5
					c-32.64,0-59.1-26.46-59.1-59.1c0-32.65,26.46-59.11,59.1-59.11c6.01,0,11.81,0.9,17.27,2.57c4.27,1.29,8.34,3.07,12.14,5.25
					c0,0,0.01,0,0.01,0.01c16.13,9.27,27.47,25.93,29.39,45.37C503.413,113.26,503.513,115.23,503.513,117.23z"/>
				<path style="fill:#E9F2F5;" d="M503.023,109.631c-5.7-26.68-29.41-41.68-57.79-41.68c-16.88,0-32.1,7.08-42.87,18.43
					c-9.8-9.05-22.9-14.58-37.29-14.58c-30.4,0-55.03,19.64-55.03,50.03c0,2.34,0.15,4.65,0.43,6.91c-0.83-3.78-1.26-7.7-1.26-11.73
					c0-30.39,24.64-55.03,55.03-55.03c14.4,0,27.49,5.53,37.3,14.58c10.77-11.35,25.98-18.44,42.86-18.44
					C474.473,58.12,499.303,80.571,503.023,109.631z"/>
				
					<ellipse transform="matrix(0.2344 -0.9721 0.9721 0.2344 199.9491 612.162)" style="fill:#FFFFFF;" cx="488.619" cy="179.139" rx="46.154" ry="46.154"/>
				<path style="fill:#E9F2F5;" d="M534.773,179.141c0,25.49-20.66,46.15-46.15,46.15c-1.04,0-2.06-0.03-3.08-0.1
					c24.05-1.59,43.07-21.6,43.07-46.05s-19.02-44.47-43.07-46.06c1.02-0.07,2.04-0.1,3.08-0.1
					C514.113,132.98,534.773,153.65,534.773,179.141z"/>
				<path style="fill:#E9F2F5;" d="M473.375,179.82c0,24.556-32.831,44.451-73.323,44.451c-40.492,0-73.323-19.895-73.323-44.451
					c0-1.171,0.08-2.342,0.226-3.49c2.931,22.916,34.55,40.962,73.096,40.962s70.165-18.045,73.096-40.962
					C473.296,177.477,473.375,178.648,473.375,179.82z"/>
				<path style="fill:#E9F2F5;" d="M311.937,129.933c-2.558-0.36-5.176-0.531-7.842-0.499c-27.177,0.331-49.64,22.265-50.58,49.427
					c-0.162,4.69,0.306,9.247,1.328,13.579c-0.34-2.36-0.51-4.76-0.51-7.21c0-28.3,22.95-51.25,51.25-51.25
					c7.98,0,15.53,1.82,22.26,5.07l0,0C323.839,134.163,318.193,130.815,311.937,129.933z"/>
			</g>
			<path style="fill:#E9F2F5;" d="M340.443,302.91c-1.28,0.81-2.56,1.66-3.84,2.53l-10.25-74.26l0.38-2.03
				c-0.4,1.85,6.2,38.66,10.23,50.88C339.133,286.6,340.053,295.801,340.443,302.91z"/>
			<path style="fill:#E9F2F5;" d="M468.313,220.59l-11.71,84.85c-5.29-3.62-10.59-6.76-15.88-9.41c1.62-3.49,7.987-7.594,12.1-16
				C457.246,270.991,465.803,235.48,468.313,220.59z"/>
		</g>
		<g>
			<ellipse style="fill:#D1D1D1;" cx="619.343" cy="278.293" rx="134.454" ry="45.858"/>
			<rect x="484.889" y="269.175" style="fill:#D1D1D1;" width="268.909" height="9.118"/>
			<ellipse style="fill:#FFFFFF;" cx="619.343" cy="269.175" rx="134.454" ry="45.858"/>
			<path style="fill:#D1D1D1;" d="M743.203,279.513c-44.989,37.059-202.743,37.042-247.719,0c-3.081-2.537-4.739-6.424-4.56-10.411
				c2.197-49.078,53.185-99.802,128.419-99.802c75.202,0,126.224,50.695,128.42,99.802
				C747.941,273.09,746.284,276.976,743.203,279.513z"/>
			<path style="fill:#E8E8E8;" d="M743.203,277.513c-44.989,37.059-202.743,37.042-247.719,0c-3.081-2.537-4.739-6.424-4.56-10.411
				c2.197-49.078,53.185-99.802,128.419-99.802c75.202,0,126.224,50.695,128.42,99.802
				C747.941,271.09,746.284,274.976,743.203,277.513z"/>
			<path style="fill:#E0E0E0;" d="M747.763,267.1c0.18,3.99-1.48,7.88-4.56,10.41c-24.46,20.15-82.23,29.34-137.1,27.58
				c46.07-1.48,90.08-10.67,110.61-27.58c3.08-2.53,4.74-6.42,4.56-10.41c-2.06-46.17-47.28-93.73-115.18-99.26
				c4.33-0.36,8.74-0.54,13.25-0.54C694.543,167.301,745.563,217.99,747.763,267.1z"/>
			<path style="fill:#FFFFFF;" d="M604.553,171.6c-48.222,12.581-80.541,44.441-93.265,78.477c-0.615,1.644-2.253,2.675-4.006,2.568
				v0c-2.799-0.172-4.574-3.077-3.452-5.647c14.462-33.119,47.6-63.296,95.913-74.368C601.343,172.26,602.953,171.911,604.553,171.6
				z"/>
		</g>
	</g>
</g>
</svg>
